<svg width="16" height="22" viewBox="0 0 16 22" fill="none" xmlns="http://www.w3.org/2000/svg">
<path d="M11.9 15.4502H3.5C3.2 15.4502 3 15.2502 3 14.9502C3 14.6502 3.2 14.4502 3.5 14.4502H12.4C12.7 14.4502 12.4 14.6502 12.4 14.9502C12.4 15.2502 12.2 15.4502 11.9 15.4502Z" fill="#A3A3A3"/>
<path d="M10.65 18.0503H3.5C3.2 18.0503 3 17.8503 3 17.5503C3 17.2503 3.2 17.0503 3.5 17.0503H10.65C10.95 17.0503 11.15 17.2503 11.15 17.5503C11.15 17.8503 10.9 18.0503 10.65 18.0503Z" fill="#A3A3A3"/>
<path d="M12.5 10.2002H3.5C3.2 10.2002 3 10.0002 3 9.7002C3 9.4002 3.2 9.2002 3.5 9.2002H12.5C12.8 9.2002 13 9.4002 13 9.7002C13 10.0002 12.8 10.2002 12.5 10.2002Z" fill="#A3A3A3"/>
<path d="M12.5 12.8003H3.5C3.2 12.8003 3 12.6003 3 12.3003C3 12.0003 3.2 11.8003 3.5 11.8003H12.5C12.8 11.8003 13 12.0003 13 12.3003C13 12.6003 12.8 12.8003 12.5 12.8003Z" fill="#A3A3A3"/>
<path d="M12.5 4.9502H7.75C7.45 4.9502 7.25 4.7502 7.25 4.4502C7.25 4.1502 7.45 3.9502 7.75 3.9502H12.5C12.8 3.9502 13 4.1502 13 4.4502C13 4.7502 12.8 4.9502 12.5 4.9502Z" fill="#A3A3A3"/>
<path d="M12.5 7.55029H7.75C7.45 7.55029 7.25 7.35029 7.25 7.05029C7.25 6.75029 7.45 6.55029 7.75 6.55029H12.5C12.8 6.55029 13 6.75029 13 7.05029C13 7.35029 12.8 7.55029 12.5 7.55029Z" fill="#A3A3A3"/>
<path d="M14.5 15V19.5C14.5 19.75 14.4 20 14.2 20.2C14 20.4 13.75 20.5 13.5 20.5H2.5C1.95 20.5 1.5 20.05 1.5 19.5V2.5C1.5 1.95 1.95 1.5 2.5 1.5H13.5C14.05 1.5 14.5 1.95 14.5 2.5V12.95L15.5 11.95V2.5C15.5 1.4 14.6 0.5 13.5 0.5H2.5C1.4 0.5 0.5 1.4 0.5 2.5V19.5C0.5 20.6 1.4 21.5 2.5 21.5H13.5C14.6 21.5 15.5 20.6 15.5 19.5V14L14.5 15Z" fill="#A3A3A3"/>
</svg>
